<?xml version="1.0" encoding="UTF-8" standalone="no"?>
<!-- Created with Inkscape (http://www.inkscape.org/) -->

<svg
   xmlns:dc="http://purl.org/dc/elements/1.1/"
   xmlns:cc="http://creativecommons.org/ns#"
   xmlns:rdf="http://www.w3.org/1999/02/22-rdf-syntax-ns#"
   xmlns:svg="http://www.w3.org/2000/svg"
   xmlns="http://www.w3.org/2000/svg"
   xmlns:sodipodi="http://sodipodi.sourceforge.net/DTD/sodipodi-0.dtd"
   xmlns:inkscape="http://www.inkscape.org/namespaces/inkscape"
   id="svg2"
   version="1.1"
   inkscape:version="0.48.5 r10040"
   width="312.5"
   height="215"
   xml:space="preserve"
   sodipodi:docname="5cf29f61ec3c3c75d48fc810517f5264.eps"
   inkscape:export-filename="/home/alexis/Cerruti_Server/ark/shared/images/500.png"
   inkscape:export-xdpi="275.10358"
   inkscape:export-ydpi="275.10358"><metadata
     id="metadata8"><rdf:RDF><cc:Work
         rdf:about=""><dc:format>image/svg+xml</dc:format><dc:type
           rdf:resource="http://purl.org/dc/dcmitype/StillImage" /><dc:title></dc:title></cc:Work></rdf:RDF></metadata><defs
     id="defs6" /><sodipodi:namedview
     pagecolor="#ffffff"
     bordercolor="#666666"
     borderopacity="1"
     objecttolerance="10"
     gridtolerance="10"
     guidetolerance="10"
     inkscape:pageopacity="0"
     inkscape:pageshadow="2"
     inkscape:window-width="1366"
     inkscape:window-height="713"
     id="namedview4"
     showgrid="false"
     inkscape:zoom="1.0976744"
     inkscape:cx="1.3771186"
     inkscape:cy="107.5"
     inkscape:window-x="0"
     inkscape:window-y="30"
     inkscape:window-maximized="1"
     inkscape:current-layer="g10" /><g
     id="g10"
     inkscape:groupmode="layer"
     inkscape:label="ink_ext_XXXXXX"
     transform="matrix(1.25,0,0,-1.25,0,215)"><path
       style="fill:#dd4b39;fill-opacity:1;fill-rule:nonzero;stroke:none"
       d="M 184.625 9.59375 C 180.17656 9.6215211 175.73409 10.05511 171.34375 10.90625 C 160.29429 13.04865 149.18923 17.924013 139.96875 24.09375 C 134.55041 27.7956 128.7962 34.940025 122.5 36.8125 C 119.0118 37.908088 114.3632 36.23995 110.875 35.75 C 105.58224 35.008275 101.04262 35.253475 95.78125 36.15625 C 72.111486 40.217625 44.968755 64.813894 52.75 90.5 C 4.7186695 102.31109 -5.9491306 176.82588 38.8125 198.96875 C 58.043878 208.465 81.8208 205.0625 102.75 205.0625 L 201.59375 205.0625 C 217.87201 205.0625 236.75778 207.30868 252.75 203.90625 C 270.46774 199.62353 286.46874 190.8294 295.0625 174.4375 C 308.01303 149.48632 301.57479 118.84462 279.4375 100.9375 C 273.66919 96.334121 267.13117 91.804266 259.71875 90.5 C 270.5774 46.01396 227.62655 9.3252962 184.625 9.59375 z M 121.90625 74.0625 C 142.42377 73.860301 146.29379 107.73613 123.75 110.78125 C 100.32525 113.94625 95.34525 78.26875 118.75 74.34375 C 119.83838 74.16123 120.89719 74.072444 121.90625 74.0625 z M 199.40625 74.0625 C 219.92377 73.860301 223.79379 107.73613 201.25 110.78125 C 177.825 113.94625 172.845 78.26875 196.25 74.34375 C 197.33838 74.16123 198.39719 74.072444 199.40625 74.0625 z M 216.90625 140.03125 C 218.83281 140.05345 220.7375 140.35938 222.375 141.28125 C 227.905 144.39263 228.23625 151.585 223.46875 155.53125 C 216.705 161.23638 202.18 161.34525 193.75 162.8125 C 172.035 166.59225 150.365 171.25 128.75 175.5 C 120.89887 177.06737 106.25 182.919 98.75 178.75 C 93.3525 175.60888 93.016125 168.41112 97.78125 164.46875 C 102.15625 160.85 109.64263 160.76763 115 159.5625 C 146.6875 152.5 179.15875 145.54975 211.25 140.5625 C 213.02 140.28806 214.97969 140.00905 216.90625 140.03125 z "
       transform="matrix(0.8,0,0,-0.8,0,172)"
       id="path16" /><path
       inkscape:connector-curvature="0"
       id="path20"
       style="fill:#231f20;fill-opacity:1;fill-rule:nonzero;stroke:none"
       d="m 169,170 1,-1 -1,1" /><path
       inkscape:connector-curvature="0"
       id="path22"
       style="fill:#ed1c24;fill-opacity:1;fill-rule:nonzero;stroke:none"
       d="m 179,166 1,-1 -1,1" /><path
       inkscape:connector-curvature="0"
       id="path24"
       style="fill:#231f20;fill-opacity:1;fill-rule:nonzero;stroke:none"
       d="m 108,158 1,-1 -1,1" /><path
       inkscape:connector-curvature="0"
       id="path26"
       style="fill:#8c493a;fill-opacity:1;fill-rule:nonzero;stroke:none"
       d="m 103,154 1,-1 -1,1" /><path
       inkscape:connector-curvature="0"
       id="path28"
       style="fill:#ed1c24;fill-opacity:1;fill-rule:nonzero;stroke:none"
       d="m 70,149 1,-1 -1,1" /><path
       inkscape:connector-curvature="0"
       id="path30"
       style="fill:#231f20;fill-opacity:1;fill-rule:nonzero;stroke:none"
       d="m 209,138 1,-1 -1,1 z m -163,-3 1,-1 -1,1" /><path
       inkscape:connector-curvature="0"
       id="path32"
       style="fill:#ed1c24;fill-opacity:1;fill-rule:nonzero;stroke:none"
       d="m 39,125 1,-1 -1,1" /><path
       inkscape:connector-curvature="0"
       id="path34"
       style="fill:#d6835a;fill-opacity:1;fill-rule:nonzero;stroke:none"
       d="m 92,113 1,-1 -1,1" /><path
       inkscape:connector-curvature="0"
       id="path36"
       style="fill:#f4d9c9;fill-opacity:1;fill-rule:nonzero;stroke:none"
       d="m 93.6672,112.667 c -0.4453,-0.445 0.6109,-0.389 0.6656,-0.334 0.4453,0.445 -0.6109,0.389 -0.6656,0.334" /><path
       inkscape:connector-curvature="0"
       id="path40"
       style="fill:#e9b89d;fill-opacity:1;fill-rule:nonzero;stroke:none"
       d="m 100,113 1,-1 -1,1" /><path
       inkscape:connector-curvature="0"
       id="path42"
       style="fill:#d6835a;fill-opacity:1;fill-rule:nonzero;stroke:none"
       d="m 101,113 1,-1 -1,1 z m 53,0 1,-1 -1,1" /><path
       inkscape:connector-curvature="0"
       id="path44"
       style="fill:#f4d9c9;fill-opacity:1;fill-rule:nonzero;stroke:none"
       d="m 155.667,112.667 c -0.445,-0.445 0.611,-0.389 0.666,-0.334 0.445,0.445 -0.611,0.389 -0.666,0.334" /><path
       inkscape:connector-curvature="0"
       id="path48"
       style="fill:#e9b89d;fill-opacity:1;fill-rule:nonzero;stroke:none"
       d="m 162,113 1,-1 -1,1" /><path
       inkscape:connector-curvature="0"
       id="path50"
       style="fill:#d6835a;fill-opacity:1;fill-rule:nonzero;stroke:none"
       d="m 163,113 1,-1 -1,1" /><path
       inkscape:connector-curvature="0"
       id="path52"
       style="fill:#e5aa8a;fill-opacity:1;fill-rule:nonzero;stroke:none"
       d="m 90,112 1,-1 -1,1 z m 13,0 1,-1 -1,1 z m 49,0 1,-1 -1,1 z m 13,0 1,-1 -1,1" /><path
       inkscape:connector-curvature="0"
       id="path54"
       style="fill:#dc926d;fill-opacity:1;fill-rule:nonzero;stroke:none"
       d="m 88,111 1,-1 -1,1 z m 17,0 1,-1 -1,1 z m 45,0 1,-1 -1,1 z m 17,0 1,-1 -1,1" /><path
       inkscape:connector-curvature="0"
       id="path56"
       style="fill:#e8b496;fill-opacity:1;fill-rule:nonzero;stroke:none"
       d="m 87,110 1,-1 -1,1 z m 19,0 1,-1 -1,1 z m 43,0 1,-1 -1,1 z m 19,0 1,-1 -1,1" /><path
       inkscape:connector-curvature="0"
       id="path58"
       style="fill:#eecbb5;fill-opacity:1;fill-rule:nonzero;stroke:none"
       d="m 86,109 1,-1 -1,1 z m 21,0 1,-1 -1,1 z m 41,0 1,-1 -1,1 z m 21,0 1,-1 -1,1" /><path
       inkscape:connector-curvature="0"
       id="path60"
       style="fill:#e8b496;fill-opacity:1;fill-rule:nonzero;stroke:none"
       d="m 85,108 1,-1 -1,1 z m 23,0 1,-1 -1,1 z m 39,0 1,-1 -1,1 z m 23,0 1,-1 -1,1" /><path
       inkscape:connector-curvature="0"
       id="path62"
       style="fill:#dc926d;fill-opacity:1;fill-rule:nonzero;stroke:none"
       d="m 84,107 1,-1 -1,1 z m 25,0 1,-1 -1,1 z m 37,0 1,-1 -1,1 z m 25,0 1,-1 -1,1" /><path
       inkscape:connector-curvature="0"
       id="path64"
       style="fill:#e5aa8a;fill-opacity:1;fill-rule:nonzero;stroke:none"
       d="m 83,105 1,-1 -1,1 z m 27,0 1,-1 -1,1 z m 35,0 1,-1 -1,1 z m 27,0 1,-1 -1,1" /><path
       inkscape:connector-curvature="0"
       id="path66"
       style="fill:#d6835a;fill-opacity:1;fill-rule:nonzero;stroke:none"
       d="m 82,103 1,-1 -1,1 z m 29,0 1,-1 -1,1 z m 33,0 1,-1 -1,1 z m 29,0 1,-1 -1,1" /><path
       inkscape:connector-curvature="0"
       id="path68"
       style="fill:#8c493a;fill-opacity:1;fill-rule:nonzero;stroke:none"
       d="m 214,103 1,-1 -1,1" /><path
       inkscape:connector-curvature="0"
       id="path70"
       style="fill:#ed1c24;fill-opacity:1;fill-rule:nonzero;stroke:none"
       d="m 35,102 1,-1 -1,1" /><path
       inkscape:connector-curvature="0"
       id="path72"
       style="fill:#f4d9c9;fill-opacity:1;fill-rule:nonzero;stroke:none"
       d="m 82.3328,101.333 c -0.0547,-0.055 -0.1109,-1.111 0.3344,-0.666 0.0547,0.055 0.1109,1.111 -0.3344,0.666 z m 29.0002,0 c -0.055,-0.055 -0.111,-1.111 0.334,-0.666 0.055,0.055 0.111,1.111 -0.334,0.666 z m 33,0 c -0.055,-0.055 -0.111,-1.111 0.334,-0.666 0.055,0.055 0.111,1.111 -0.334,0.666 z m 29,0 c -0.055,-0.055 -0.111,-1.111 0.334,-0.666 0.055,0.055 0.111,1.111 -0.334,0.666" /><path
       inkscape:connector-curvature="0"
       id="path74"
       style="fill:#ed1c24;fill-opacity:1;fill-rule:nonzero;stroke:none"
       d="m 33,101 1,-1 -1,1" /><path
       inkscape:connector-curvature="0"
       id="path76"
       style="fill:#8c493a;fill-opacity:1;fill-rule:nonzero;stroke:none"
       d="m 29,99 1,-1 -1,1" /><path
       inkscape:connector-curvature="0"
       id="path78"
       style="fill:#231f20;fill-opacity:1;fill-rule:nonzero;stroke:none"
       d="m 222,98 1,-1 -1,1" /><path
       inkscape:connector-curvature="0"
       id="path80"
       style="fill:#e9b89d;fill-opacity:1;fill-rule:nonzero;stroke:none"
       d="m 82,95 1,-1 -1,1" /><path
       inkscape:connector-curvature="0"
       id="path82"
       style="fill:#e9b89c;fill-opacity:1;fill-rule:nonzero;stroke:none"
       d="m 111,95 1,-1 -1,1" /><path
       inkscape:connector-curvature="0"
       id="path84"
       style="fill:#e9b89d;fill-opacity:1;fill-rule:nonzero;stroke:none"
       d="m 144,95 1,-1 -1,1" /><path
       inkscape:connector-curvature="0"
       id="path86"
       style="fill:#e9b89c;fill-opacity:1;fill-rule:nonzero;stroke:none"
       d="m 173,95 1,-1 -1,1" /><path
       inkscape:connector-curvature="0"
       id="path88"
       style="fill:#d6835a;fill-opacity:1;fill-rule:nonzero;stroke:none"
       d="m 82,94 1,-1 -1,1 z m 29,0 1,-1 -1,1 z m 33,0 1,-1 -1,1 z m 29,0 1,-1 -1,1" /><path
       inkscape:connector-curvature="0"
       id="path90"
       style="fill:#8c493a;fill-opacity:1;fill-rule:nonzero;stroke:none"
       d="m 228,94 1,-1 -1,1" /><path
       inkscape:connector-curvature="0"
       id="path92"
       style="fill:#e5aa8a;fill-opacity:1;fill-rule:nonzero;stroke:none"
       d="m 83,92 1,-1 -1,1 z m 27,0 1,-1 -1,1 z m 35,0 1,-1 -1,1 z m 27,0 1,-1 -1,1" /><path
       inkscape:connector-curvature="0"
       id="path94"
       style="fill:#dc926d;fill-opacity:1;fill-rule:nonzero;stroke:none"
       d="m 84,90 1,-1 -1,1 z m 25,0 1,-1 -1,1 z m 37,0 1,-1 -1,1 z m 25,0 1,-1 -1,1" /><path
       inkscape:connector-curvature="0"
       id="path96"
       style="fill:#231f20;fill-opacity:1;fill-rule:nonzero;stroke:none"
       d="m 233,90 1,-1 -1,1" /><path
       inkscape:connector-curvature="0"
       id="path98"
       style="fill:#e8b496;fill-opacity:1;fill-rule:nonzero;stroke:none"
       d="m 85,89 1,-1 -1,1 z m 23,0 1,-1 -1,1 z m 39,0 1,-1 -1,1 z m 23,0 1,-1 -1,1" /><path
       inkscape:connector-curvature="0"
       id="path100"
       style="fill:#ed1c24;fill-opacity:1;fill-rule:nonzero;stroke:none"
       d="m 14,88 1,-1 -1,1" /><path
       inkscape:connector-curvature="0"
       id="path102"
       style="fill:#eecbb5;fill-opacity:1;fill-rule:nonzero;stroke:none"
       d="m 86,88 1,-1 -1,1 z m 21,0 1,-1 -1,1 z m 41,0 1,-1 -1,1 z m 21,0 1,-1 -1,1" /><path
       inkscape:connector-curvature="0"
       id="path104"
       style="fill:#8c493a;fill-opacity:1;fill-rule:nonzero;stroke:none"
       d="m 235,88 1,-1 -1,1" /><path
       inkscape:connector-curvature="0"
       id="path106"
       style="fill:#e8b496;fill-opacity:1;fill-rule:nonzero;stroke:none"
       d="m 87,87 1,-1 -1,1 z m 19,0 1,-1 -1,1 z m 43,0 1,-1 -1,1 z m 19,0 1,-1 -1,1" /><path
       inkscape:connector-curvature="0"
       id="path108"
       style="fill:#ed1c24;fill-opacity:1;fill-rule:nonzero;stroke:none"
       d="m 236,87 1,-1 -1,1" /><path
       inkscape:connector-curvature="0"
       id="path110"
       style="fill:#dc926d;fill-opacity:1;fill-rule:nonzero;stroke:none"
       d="m 88,86 1,-1 -1,1 z m 17,0 1,-1 -1,1 z m 45,0 1,-1 -1,1 z m 17,0 1,-1 -1,1" /><path
       inkscape:connector-curvature="0"
       id="path112"
       style="fill:#231f20;fill-opacity:1;fill-rule:nonzero;stroke:none"
       d="m 237,86 1,-1 -1,1" /><path
       inkscape:connector-curvature="0"
       id="path114"
       style="fill:#e5aa8a;fill-opacity:1;fill-rule:nonzero;stroke:none"
       d="m 90,85 1,-1 -1,1 z m 13,0 1,-1 -1,1 z m 49,0 1,-1 -1,1 z m 13,0 1,-1 -1,1" /><path
       inkscape:connector-curvature="0"
       id="path116"
       style="fill:#d6835a;fill-opacity:1;fill-rule:nonzero;stroke:none"
       d="m 92,84 1,-1 -1,1" /><path
       inkscape:connector-curvature="0"
       id="path118"
       style="fill:#f4d9c9;fill-opacity:1;fill-rule:nonzero;stroke:none"
       d="m 93.6672,83.6672 c -0.4453,-0.4453 0.6109,-0.3891 0.6656,-0.3344 0.4453,0.4453 -0.6109,0.3891 -0.6656,0.3344" /><path
       inkscape:connector-curvature="0"
       id="path120"
       style="fill:#e9b89d;fill-opacity:1;fill-rule:nonzero;stroke:none"
       d="m 100,84 1,-1 -1,1" /><path
       inkscape:connector-curvature="0"
       id="path122"
       style="fill:#d6835a;fill-opacity:1;fill-rule:nonzero;stroke:none"
       d="m 101,84 1,-1 -1,1 z m 53,0 1,-1 -1,1" /><path
       inkscape:connector-curvature="0"
       id="path124"
       style="fill:#f4d9c9;fill-opacity:1;fill-rule:nonzero;stroke:none"
       d="m 155.667,83.6672 c -0.445,-0.4453 0.611,-0.3891 0.666,-0.3344 0.445,0.4453 -0.611,0.3891 -0.666,0.3344" /><path
       inkscape:connector-curvature="0"
       id="path126"
       style="fill:#e9b89d;fill-opacity:1;fill-rule:nonzero;stroke:none"
       d="m 162,84 1,-1 -1,1" /><path
       inkscape:connector-curvature="0"
       id="path128"
       style="fill:#d6835a;fill-opacity:1;fill-rule:nonzero;stroke:none"
       d="m 163,84 1,-1 -1,1" /><path
       inkscape:connector-curvature="0"
       id="path132"
       style="fill:#231f20;fill-opacity:1;fill-rule:nonzero;stroke:none"
       d="m 245,74 1,-1 -1,1" /><path
       inkscape:connector-curvature="0"
       id="path134"
       style="fill:#ed1c24;fill-opacity:1;fill-rule:nonzero;stroke:none"
       d="m 248,66 1,-1 -1,1" /><path
       inkscape:connector-curvature="0"
       id="path136"
       style="fill:#e0a07c;fill-opacity:1;fill-rule:nonzero;stroke:none"
       d="m 172,61 c 1.506,-0.6828 2.315,-0.8262 4,-1 -1.506,0.6828 -2.315,0.8262 -4,1" /><path
       inkscape:connector-curvature="0"
       id="path138"
       style="fill:#d37c52;fill-opacity:1;fill-rule:nonzero;stroke:none"
       d="m 176,61 1,-1 -1,1" /><path
       inkscape:connector-curvature="0"
       id="path140"
       style="fill:#e3aa89;fill-opacity:1;fill-rule:nonzero;stroke:none"
       d="m 167.667,59.6672 c -0.445,-0.4453 0.611,-0.3891 0.666,-0.3344 0.445,0.4453 -0.611,0.3891 -0.666,0.3344" /><path
       inkscape:connector-curvature="0"
       id="path144"
       style="fill:#da9069;fill-opacity:1;fill-rule:nonzero;stroke:none"
       d="m 178,60 1,-1 -1,1" /><path
       inkscape:connector-curvature="0"
       id="path146"
       style="fill:#e5ad8e;fill-opacity:1;fill-rule:nonzero;stroke:none"
       d="m 162.667,58.6672 c -0.445,-0.4453 0.611,-0.3891 0.666,-0.3344 0.445,0.4453 -0.611,0.3891 -0.666,0.3344" /><path
       inkscape:connector-curvature="0"
       id="path148"
       style="fill:#e2a280;fill-opacity:1;fill-rule:nonzero;stroke:none"
       d="m 179,59 1,-1 -1,1" /><path
       inkscape:connector-curvature="0"
       id="path150"
       style="fill:#e6b293;fill-opacity:1;fill-rule:nonzero;stroke:none"
       d="m 157.667,57.6672 c -0.445,-0.4453 0.611,-0.3891 0.666,-0.3344 0.445,0.4453 -0.611,0.3891 -0.666,0.3344" /><path
       inkscape:connector-curvature="0"
       id="path152"
       style="fill:#e0a17e;fill-opacity:1;fill-rule:nonzero;stroke:none"
       d="m 180,58 1,-1 -1,1" /><path
       inkscape:connector-curvature="0"
       id="path154"
       style="fill:#e8b597;fill-opacity:1;fill-rule:nonzero;stroke:none"
       d="m 152.667,56.6672 c -0.445,-0.4453 0.611,-0.3891 0.666,-0.3344 0.445,0.4453 -0.611,0.3891 -0.666,0.3344" /><path
       inkscape:connector-curvature="0"
       id="path156"
       style="fill:#e9b89d;fill-opacity:1;fill-rule:nonzero;stroke:none"
       d="m 147.667,55.6672 c -0.445,-0.4453 0.611,-0.3891 0.666,-0.3344 0.445,0.4453 -0.611,0.3891 -0.666,0.3344" /><path
       inkscape:connector-curvature="0"
       id="path158"
       style="fill:#e9b79a;fill-opacity:1;fill-rule:nonzero;stroke:none"
       d="m 181,56 1,-1 -1,1" /><path
       inkscape:connector-curvature="0"
       id="path160"
       style="fill:#d1794f;fill-opacity:1;fill-rule:nonzero;stroke:none"
       d="m 141,55 1,-1 -1,1" /><path
       inkscape:connector-curvature="0"
       id="path162"
       style="fill:#eabda2;fill-opacity:1;fill-rule:nonzero;stroke:none"
       d="m 142.667,54.6672 c -0.445,-0.4453 0.611,-0.3891 0.666,-0.3344 0.445,0.4453 -0.611,0.3891 -0.666,0.3344" /><path
       inkscape:connector-curvature="0"
       id="path164"
       style="fill:#d37d53;fill-opacity:1;fill-rule:nonzero;stroke:none"
       d="m 136,54 1,-1 -1,1" /><path
       inkscape:connector-curvature="0"
       id="path166"
       style="fill:#ebc0a6;fill-opacity:1;fill-rule:nonzero;stroke:none"
       d="m 137.667,53.6672 c -0.445,-0.4453 0.611,-0.3891 0.666,-0.3344 0.445,0.4453 -0.611,0.3891 -0.666,0.3344" /><path
       inkscape:connector-curvature="0"
       id="path168"
       style="fill:#d48058;fill-opacity:1;fill-rule:nonzero;stroke:none"
       d="m 131,53 1,-1 -1,1" /><path
       inkscape:connector-curvature="0"
       id="path170"
       style="fill:#ecc3ab;fill-opacity:1;fill-rule:nonzero;stroke:none"
       d="m 132.667,52.6672 c -0.445,-0.4453 0.611,-0.3891 0.666,-0.3344 0.445,0.4453 -0.611,0.3891 -0.666,0.3344" /><path
       inkscape:connector-curvature="0"
       id="path172"
       style="fill:#e2a786;fill-opacity:1;fill-rule:nonzero;stroke:none"
       d="m 126.667,51.6672 c -0.445,-0.4453 0.611,-0.3891 0.666,-0.3344 0.445,0.4453 -0.611,0.3891 -0.666,0.3344" /><path
       inkscape:connector-curvature="0"
       id="path174"
       style="fill:#f8e6db;fill-opacity:1;fill-rule:nonzero;stroke:none"
       d="m 128.667,51.6672 c -0.445,-0.4453 0.611,-0.3891 0.666,-0.3344 0.445,0.4453 -0.611,0.3891 -0.666,0.3344" /><path
       inkscape:connector-curvature="0"
       id="path176"
       style="fill:#e5aa8a;fill-opacity:1;fill-rule:nonzero;stroke:none"
       d="m 121.667,50.6672 c -0.445,-0.4453 0.611,-0.3891 0.666,-0.3344 0.445,0.4453 -0.611,0.3891 -0.666,0.3344" /><path
       inkscape:connector-curvature="0"
       id="path178"
       style="fill:#e8b89b;fill-opacity:1;fill-rule:nonzero;stroke:none"
       d="m 181,51 1,-1 -1,1" /><path
       inkscape:connector-curvature="0"
       id="path180"
       style="fill:#e5ae8f;fill-opacity:1;fill-rule:nonzero;stroke:none"
       d="m 116.667,49.6672 c -0.445,-0.4453 0.611,-0.3891 0.666,-0.3344 0.445,0.4453 -0.611,0.3891 -0.666,0.3344" /><path
       inkscape:connector-curvature="0"
       id="path182"
       style="fill:#e6b394;fill-opacity:1;fill-rule:nonzero;stroke:none"
       d="m 111.667,48.6672 c -0.445,-0.4453 0.611,-0.3891 0.666,-0.3344 0.445,0.4453 -0.611,0.3891 -0.666,0.3344" /><path
       inkscape:connector-curvature="0"
       id="path184"
       style="fill:#e0a17e;fill-opacity:1;fill-rule:nonzero;stroke:none"
       d="m 180,49 1,-1 -1,1" /><path
       inkscape:connector-curvature="0"
       id="path186"
       style="fill:#e8b598;fill-opacity:1;fill-rule:nonzero;stroke:none"
       d="m 106.667,47.6672 c -0.445,-0.4453 0.611,-0.3891 0.666,-0.3344 0.445,0.4453 -0.611,0.3891 -0.666,0.3344" /><path
       inkscape:connector-curvature="0"
       id="path188"
       style="fill:#e2a280;fill-opacity:1;fill-rule:nonzero;stroke:none"
       d="m 179,48 1,-1 -1,1" /><path
       inkscape:connector-curvature="0"
       id="path190"
       style="fill:#d0754c;fill-opacity:1;fill-rule:nonzero;stroke:none"
       d="m 100,47 1,-1 -1,1" /><path
       inkscape:connector-curvature="0"
       id="path192"
       style="fill:#e8b99d;fill-opacity:1;fill-rule:nonzero;stroke:none"
       d="m 101.667,46.6672 c -0.445,-0.4453 0.611,-0.3891 0.666,-0.3344 0.445,0.4453 -0.611,0.3891 -0.666,0.3344" /><path
       inkscape:connector-curvature="0"
       id="path194"
       style="fill:#da9069;fill-opacity:1;fill-rule:nonzero;stroke:none"
       d="m 178,47 1,-1 -1,1" /><path
       inkscape:connector-curvature="0"
       id="path196"
       style="fill:#d27950;fill-opacity:1;fill-rule:nonzero;stroke:none"
       d="m 95,46 1,-1 -1,1" /><path
       inkscape:connector-curvature="0"
       id="path198"
       style="fill:#eabea3;fill-opacity:1;fill-rule:nonzero;stroke:none"
       d="m 96.6672,45.6672 c -0.4453,-0.4453 0.6109,-0.3891 0.6656,-0.3344 0.4453,0.4453 -0.6109,0.3891 -0.6656,0.3344" /><path
       inkscape:connector-curvature="0"
       id="path200"
       style="fill:#e3a888;fill-opacity:1;fill-rule:nonzero;stroke:none"
       d="m 174.667,45.6672 c -0.445,-0.4453 0.611,-0.3891 0.666,-0.3344 0.445,0.4453 -0.611,0.3891 -0.666,0.3344" /><path
       inkscape:connector-curvature="0"
       id="path202"
       style="fill:#d17a51;fill-opacity:1;fill-rule:nonzero;stroke:none"
       d="m 176,46 1,-1 -1,1" /><path
       inkscape:connector-curvature="0"
       id="path204"
       style="fill:#d37d54;fill-opacity:1;fill-rule:nonzero;stroke:none"
       d="m 90,45 1,-1 -1,1" /><path
       inkscape:connector-curvature="0"
       id="path206"
       style="fill:#ecc0a7;fill-opacity:1;fill-rule:nonzero;stroke:none"
       d="m 91.6672,44.6672 c -0.4453,-0.4453 0.6109,-0.3891 0.6656,-0.3344 0.4453,0.4453 -0.6109,0.3891 -0.6656,0.3344" /><path
       inkscape:connector-curvature="0"
       id="path208"
       style="fill:#e2a583;fill-opacity:1;fill-rule:nonzero;stroke:none"
       d="m 169,45 c 1.248,-0.6852 1.548,-0.7488 3,-1 -1.248,0.6852 -1.548,0.7488 -3,1" /><path
       inkscape:connector-curvature="0"
       id="path210"
       style="fill:#e2a381;fill-opacity:1;fill-rule:nonzero;stroke:none"
       d="m 85.6672,43.6672 c -0.4453,-0.4453 0.6109,-0.3891 0.6656,-0.3344 0.4453,0.4453 -0.6109,0.3891 -0.6656,0.3344" /><path
       inkscape:connector-curvature="0"
       id="path212"
       style="fill:#f7e3d7;fill-opacity:1;fill-rule:nonzero;stroke:none"
       d="m 87.6672,43.6672 c -0.4453,-0.4453 0.6109,-0.3891 0.6656,-0.3344 0.4453,0.4453 -0.6109,0.3891 -0.6656,0.3344" /><path
       inkscape:connector-curvature="0"
       id="path214"
       style="fill:#e0a37f;fill-opacity:1;fill-rule:nonzero;stroke:none"
       d="m 164.667,43.6672 c -0.445,-0.4453 0.611,-0.3891 0.666,-0.3344 0.445,0.4453 -0.611,0.3891 -0.666,0.3344" /><path
       inkscape:connector-curvature="0"
       id="path216"
       style="fill:#d37f56;fill-opacity:1;fill-rule:nonzero;stroke:none"
       d="m 166,44 1,-1 -1,1" /><path
       inkscape:connector-curvature="0"
       id="path220"
       style="fill:#d17a51;fill-opacity:1;fill-rule:nonzero;stroke:none"
       d="m 80,43 1,-1 -1,1" /><path
       inkscape:connector-curvature="0"
       id="path222"
       style="fill:#eec8b1;fill-opacity:1;fill-rule:nonzero;stroke:none"
       d="m 81.6672,42.6672 c -0.4453,-0.4453 0.6109,-0.3891 0.6656,-0.3344 0.4453,0.4453 -0.6109,0.3891 -0.6656,0.3344" /><path
       inkscape:connector-curvature="0"
       id="path224"
       style="fill:#df9e7a;fill-opacity:1;fill-rule:nonzero;stroke:none"
       d="m 159.667,42.6672 c -0.445,-0.4453 0.611,-0.3891 0.666,-0.3344 0.445,0.4453 -0.611,0.3891 -0.666,0.3344" /><path
       inkscape:connector-curvature="0"
       id="path226"
       style="fill:#d37a51;fill-opacity:1;fill-rule:nonzero;stroke:none"
       d="m 161,43 1,-1 -1,1" /><path
       inkscape:connector-curvature="0"
       id="path228"
       style="fill:#da9069;fill-opacity:1;fill-rule:nonzero;stroke:none"
       d="m 78,42 1,-1 -1,1" /><path
       inkscape:connector-curvature="0"
       id="path230"
       style="fill:#e9bba0;fill-opacity:1;fill-rule:nonzero;stroke:none"
       d="m 153,42 c 1.248,-0.6852 1.548,-0.7488 3,-1 -1.248,0.6852 -1.548,0.7488 -3,1" /><path
       inkscape:connector-curvature="0"
       id="path232"
       style="fill:#e2a280;fill-opacity:1;fill-rule:nonzero;stroke:none"
       d="m 77,41 1,-1 -1,1" /><path
       inkscape:connector-curvature="0"
       id="path234"
       style="fill:#e8b89b;fill-opacity:1;fill-rule:nonzero;stroke:none"
       d="m 148,41 c 1.248,-0.6852 1.548,-0.7488 3,-1 -1.248,0.6852 -1.548,0.7488 -3,1" /><path
       inkscape:connector-curvature="0"
       id="path238"
       style="fill:#e0a17e;fill-opacity:1;fill-rule:nonzero;stroke:none"
       d="m 76,40 1,-1 -1,1" /><path
       inkscape:connector-curvature="0"
       id="path240"
       style="fill:#e6b396;fill-opacity:1;fill-rule:nonzero;stroke:none"
       d="m 143,40 c 1.248,-0.6852 1.548,-0.7488 3,-1 -1.248,0.6852 -1.548,0.7488 -3,1" /><path
       inkscape:connector-curvature="0"
       id="path242"
       style="fill:#e5af91;fill-opacity:1;fill-rule:nonzero;stroke:none"
       d="m 138,39 c 1.248,-0.6852 1.548,-0.7488 3,-1 -1.248,0.6852 -1.548,0.7488 -3,1" /><path
       inkscape:connector-curvature="0"
       id="path244"
       style="fill:#e8b89b;fill-opacity:1;fill-rule:nonzero;stroke:none"
       d="m 75,38 1,-1 -1,1" /><path
       inkscape:connector-curvature="0"
       id="path246"
       style="fill:#e5ad8d;fill-opacity:1;fill-rule:nonzero;stroke:none"
       d="m 133,38 c 1.248,-0.6852 1.548,-0.7488 3,-1 -1.248,0.6852 -1.548,0.7488 -3,1" /><path
       inkscape:connector-curvature="0"
       id="path248"
       style="fill:#e3a786;fill-opacity:1;fill-rule:nonzero;stroke:none"
       d="m 128,37 c 1.248,-0.6852 1.548,-0.7488 3,-1 -1.248,0.6852 -1.548,0.7488 -3,1" /><path
       inkscape:connector-curvature="0"
       id="path250"
       style="fill:#e2a482;fill-opacity:1;fill-rule:nonzero;stroke:none"
       d="m 123.667,35.6672 c -0.445,-0.4453 0.611,-0.3891 0.666,-0.3344 0.445,0.4453 -0.611,0.3891 -0.666,0.3344" /><path
       inkscape:connector-curvature="0"
       id="path252"
       style="fill:#d58259;fill-opacity:1;fill-rule:nonzero;stroke:none"
       d="m 125,36 1,-1 -1,1" /><path
       inkscape:connector-curvature="0"
       id="path254"
       style="fill:#e0a17e;fill-opacity:1;fill-rule:nonzero;stroke:none"
       d="m 118.667,34.6672 c -0.445,-0.4453 0.611,-0.3891 0.666,-0.3344 0.445,0.4453 -0.611,0.3891 -0.666,0.3344" /><path
       inkscape:connector-curvature="0"
       id="path256"
       style="fill:#d37f56;fill-opacity:1;fill-rule:nonzero;stroke:none"
       d="m 120,35 1,-1 -1,1" /><path
       inkscape:connector-curvature="0"
       id="path258"
       style="fill:#e09c78;fill-opacity:1;fill-rule:nonzero;stroke:none"
       d="m 113.667,33.6672 c -0.445,-0.4453 0.611,-0.3891 0.666,-0.3344 0.445,0.4453 -0.611,0.3891 -0.666,0.3344" /><path
       inkscape:connector-curvature="0"
       id="path260"
       style="fill:#d17a51;fill-opacity:1;fill-rule:nonzero;stroke:none"
       d="m 115,34 1,-1 -1,1" /><path
       inkscape:connector-curvature="0"
       id="path262"
       style="fill:#e9b79a;fill-opacity:1;fill-rule:nonzero;stroke:none"
       d="m 75,33 1,-1 -1,1" /><path
       inkscape:connector-curvature="0"
       id="path264"
       style="fill:#e9b99e;fill-opacity:1;fill-rule:nonzero;stroke:none"
       d="m 107,33 c 1.248,-0.6852 1.548,-0.7488 3,-1 -1.248,0.6852 -1.548,0.7488 -3,1" /><path
       inkscape:connector-curvature="0"
       id="path266"
       style="fill:#e9b79a;fill-opacity:1;fill-rule:nonzero;stroke:none"
       d="m 102,32 c 1.248,-0.6852 1.548,-0.7488 3,-1 -1.248,0.6852 -1.548,0.7488 -3,1" /><path
       inkscape:connector-curvature="0"
       id="path268"
       style="fill:#e0a17e;fill-opacity:1;fill-rule:nonzero;stroke:none"
       d="m 76,31 1,-1 -1,1" /><path
       inkscape:connector-curvature="0"
       id="path270"
       style="fill:#e7b395;fill-opacity:1;fill-rule:nonzero;stroke:none"
       d="m 97,31 c 1.248,-0.6852 1.548,-0.7488 3,-1 -1.248,0.6852 -1.548,0.7488 -3,1" /><path
       inkscape:connector-curvature="0"
       id="path272"
       style="fill:#e2a280;fill-opacity:1;fill-rule:nonzero;stroke:none"
       d="m 77,30 1,-1 -1,1" /><path
       inkscape:connector-curvature="0"
       id="path274"
       style="fill:#e6af90;fill-opacity:1;fill-rule:nonzero;stroke:none"
       d="m 92,30 c 1.248,-0.6852 1.548,-0.7488 3,-1 -1.248,0.6852 -1.548,0.7488 -3,1" /><path
       inkscape:connector-curvature="0"
       id="path280"
       style="fill:#da9069;fill-opacity:1;fill-rule:nonzero;stroke:none"
       d="m 78,29 1,-1 -1,1" /><path
       inkscape:connector-curvature="0"
       id="path282"
       style="fill:#e5ac8b;fill-opacity:1;fill-rule:nonzero;stroke:none"
       d="m 87,29 c 1.248,-0.6852 1.548,-0.7488 3,-1 -1.248,0.6852 -1.548,0.7488 -3,1" /><path
       inkscape:connector-curvature="0"
       id="path284"
       style="fill:#d37c52;fill-opacity:1;fill-rule:nonzero;stroke:none"
       d="m 80,28 1,-1 -1,1" /><path
       inkscape:connector-curvature="0"
       id="path286"
       style="fill:#e5ad8d;fill-opacity:1;fill-rule:nonzero;stroke:none"
       d="m 81,28 c 1.248,-0.6852 1.548,-0.7488 3,-1 -1.248,0.6852 -1.548,0.7488 -3,1" /><path
       inkscape:connector-curvature="0"
       id="path288"
       style="fill:#d7855d;fill-opacity:1;fill-rule:nonzero;stroke:none"
       d="m 84,28 1,-1 -1,1" /><path
       inkscape:connector-curvature="0"
       id="path292"
       style="fill:#8c493a;fill-opacity:1;fill-rule:nonzero;stroke:none"
       d="m 232,13 1,-1 -1,1" /><path
       inkscape:connector-curvature="0"
       id="path296"
       style="fill:#ed1c24;fill-opacity:1;fill-rule:nonzero;stroke:none"
       d="m 209,2 1,-1 -1,1" /></g></svg>